<svg width="16" height="16" viewBox="0 0 16 16" fill="none" xmlns="http://www.w3.org/2000/svg">
<path d="M14.2828 9.55389L14.2108 8.83022L14.1868 8.83241L14.1636 8.83677L14.2828 9.55389ZM14.2828 9.55389L14.3556 10.2776L14.3796 10.2754L14.4028 10.2717L14.2828 9.55389ZM11.3445 13.541L11.8049 12.978L11.7991 12.9737L11.3445 13.541ZM11.3445 13.541L10.8841 14.1039L10.89 14.109L11.3445 13.541ZM4.65622 13.541L4.19584 12.9788L4.1842 12.9882L4.17329 12.9977L4.65622 13.541ZM4.65622 13.541L5.11661 14.1046L5.12824 14.0952L5.13915 14.085L4.65622 13.541ZM1.71718 6.44685V5.71954H1.68082L1.64518 5.72318L1.71718 6.44685ZM1.71718 6.44685V7.17415H1.75355L1.78991 7.17052L1.71718 6.44685ZM10.2776 1.64445C10.2654 1.50457 10.2482 1.36511 10.2274 1.22625C10.2047 1.07347 10.1581 0.925215 10.0892 0.786959L8.79677 1.45463C8.78004 1.4219 8.78368 1.41026 8.79313 1.46772C8.80404 1.53245 8.8135 1.62263 8.83022 1.78991L10.2776 1.64445ZM10.3467 2.33539C10.3925 2.39503 10.3772 2.42194 10.3517 2.28012C10.3277 2.14484 10.3088 1.95501 10.2776 1.64445L8.8295 1.78919C8.85859 2.07574 8.88332 2.33321 8.92041 2.53831C8.95605 2.73468 9.0186 2.99288 9.18951 3.21689L10.3467 2.33539ZM10.3467 2.33539L9.18951 3.21689C9.34517 3.42115 9.55212 3.58056 9.78934 3.67892C10.0266 3.77729 10.2856 3.81109 10.5401 3.77691L10.3467 2.33539ZM10.8834 1.89537C10.7204 2.03313 10.5528 2.16533 10.3808 2.29175C10.2623 2.37394 10.2717 2.34485 10.3467 2.33539L10.5401 3.77691C10.8194 3.73909 11.0463 3.6009 11.2107 3.48599C11.3816 3.36816 11.5816 3.20379 11.8042 3.02124L10.8834 1.89537ZM11.6223 1.42262C11.476 1.47155 11.3383 1.54322 11.2143 1.635C11.1125 1.70773 10.9983 1.80155 10.8834 1.89537L11.8042 3.02124C11.9344 2.91505 12.0049 2.8576 12.0587 2.81978C12.106 2.78559 12.0995 2.79723 12.0653 2.80814L11.6223 1.42262ZM12.6435 1.47353C12.3205 1.33356 11.9577 1.31547 11.6223 1.42262L12.0653 2.80814L12.6435 1.47353ZM13.3315 2.01756C13.2336 1.91682 13.1325 1.81931 13.0282 1.72518C12.9138 1.62157 12.7837 1.53664 12.6428 1.47353L12.0653 2.80814C12.0318 2.79359 12.0267 2.78196 12.0704 2.8205C12.1198 2.86414 12.1846 2.92742 12.3031 3.04597L13.3315 2.01756ZM13.9817 2.66777L13.3315 2.01756L12.3031 3.04597L12.9533 3.69618L13.9817 2.66777ZM14.5258 3.3558C14.4626 3.21488 14.3777 3.0848 14.2741 2.97033C14.1798 2.8665 14.0823 2.76559 13.9817 2.66777L12.9533 3.69691C13.0719 3.81546 13.1351 3.88019 13.1788 3.92964C13.2173 3.97328 13.2057 3.96819 13.1911 3.93474L14.5258 3.3558ZM14.5767 4.37694C14.6838 4.04161 14.6657 3.6788 14.5258 3.3558L13.1911 3.93474L14.5767 4.37694ZM14.1039 5.11588C14.1944 5.00855 14.2813 4.89817 14.3643 4.78496C14.4414 4.67731 14.5243 4.54349 14.5767 4.37694L13.1911 3.93474C13.2021 3.90055 13.213 3.89328 13.1795 3.94128C13.1417 3.99437 13.085 4.06492 12.978 4.19511L14.1039 5.11588ZM13.6639 5.65336C13.6544 5.72827 13.6253 5.737 13.7075 5.61845C13.7854 5.50571 13.9061 5.35734 14.1039 5.11588L12.978 4.19511C12.7962 4.41767 12.6311 4.61767 12.5126 4.78859C12.3984 4.95296 12.2602 5.17988 12.2224 5.45917L13.6639 5.65336ZM13.6639 5.65336L12.2224 5.45917C12.1882 5.71369 12.222 5.97272 12.3204 6.20995C12.4187 6.44717 12.5781 6.65412 12.7824 6.80977L13.6639 5.65336ZM14.3548 5.72245C14.1422 5.70465 13.9302 5.67967 13.7192 5.64754C13.5773 5.62208 13.6043 5.60754 13.6639 5.65336L12.7824 6.80977C13.0064 6.98069 13.2639 7.04324 13.4617 7.07887C13.6661 7.11524 13.9235 7.1407 14.2101 7.16979L14.3548 5.72245ZM15.2123 5.9101C15.0741 5.84123 14.9258 5.79459 14.773 5.77191C14.6342 5.75111 14.4947 5.73461 14.3548 5.72245L14.2101 7.16979C14.3178 7.17928 14.4252 7.1914 14.5323 7.20615C14.5905 7.21634 14.5781 7.21997 14.5454 7.20324L15.2123 5.9101ZM15.8982 6.66867C15.7689 6.34114 15.5252 6.07161 15.2123 5.9101L14.5461 7.2047L15.8982 6.66867ZM16 7.53999C16 7.39162 16 7.24397 15.992 7.11888C15.9844 6.96452 15.9525 6.81234 15.8974 6.66795L14.5461 7.2047C14.533 7.17052 14.5374 7.15888 14.5418 7.21706C14.5461 7.28252 14.5461 7.37343 14.5461 7.54144L16 7.53999ZM16 8.4593V7.53999H14.5454V8.4593H16ZM15.8982 9.33061C15.9622 9.16842 15.9833 9.01278 15.992 8.87968C16 8.75531 16 8.60767 16 8.4593H14.5454C14.5454 8.62731 14.5454 8.71822 14.541 8.78368C14.5367 8.84186 14.5323 8.83022 14.5454 8.79604L15.8982 9.33061ZM15.2123 10.0892C15.5252 9.92768 15.7689 9.65815 15.8982 9.33061L14.5461 8.79677L15.2123 10.0892ZM14.3548 10.2768C14.5032 10.2623 14.6494 10.2477 14.773 10.2274C14.904 10.2056 15.0567 10.1692 15.2123 10.0892L14.5461 8.79677C14.5781 8.78004 14.5905 8.78368 14.533 8.79313C14.426 8.80862 14.3186 8.82098 14.2108 8.83022L14.3548 10.2768ZM13.6646 10.3459C13.6043 10.3917 13.5773 10.3772 13.7192 10.3517C13.8545 10.3277 14.0443 10.3081 14.3548 10.2768L14.2101 8.8295C13.9243 8.85859 13.6661 8.88332 13.4617 8.92041C13.2646 8.95605 13.0064 9.0186 12.7824 9.18951L13.6646 10.3459ZM13.6646 10.3459L12.7824 9.18951C12.5781 9.34517 12.4187 9.55212 12.3204 9.78934C12.222 10.0266 12.1882 10.2856 12.2224 10.5401L13.6646 10.3459ZM14.1039 10.8827C13.9662 10.7199 13.834 10.5525 13.7075 10.3808C13.6253 10.2623 13.6552 10.271 13.6646 10.3459L12.2224 10.5401C12.2602 10.8194 12.3984 11.0463 12.5133 11.2107C12.6318 11.3816 12.7962 11.5816 12.978 11.8042L14.1039 10.8827ZM14.5767 11.6216C14.5277 11.4756 14.456 11.3381 14.3643 11.2143C14.2916 11.1118 14.1977 10.9983 14.1039 10.8827L12.978 11.8042C13.0842 11.9344 13.1417 12.0042 13.1795 12.058C13.2137 12.1053 13.2028 12.0995 13.1911 12.0653L14.5767 11.6216ZM14.5258 12.6435C14.6659 12.3203 14.684 11.9572 14.5767 11.6216L13.1911 12.0653L14.5258 12.6435ZM13.9817 13.3315C14.0872 13.2261 14.1912 13.1228 14.2741 13.0282C14.3614 12.9279 14.4559 12.8035 14.5258 12.6428L13.1911 12.0646C13.2057 12.0311 13.2173 12.0267 13.1788 12.0704C13.1351 12.1198 13.0719 12.1838 12.9533 12.3031L13.9817 13.3315ZM13.3315 13.981L13.9817 13.3315L12.9533 12.3031L12.3031 12.9526L13.3315 13.981ZM12.6435 14.5258C12.7845 14.4624 12.9145 14.3773 13.029 14.2734C13.1228 14.1912 13.2268 14.0865 13.3315 13.981L12.3031 12.9526C12.2277 13.0299 12.1501 13.1051 12.0704 13.1781C12.0267 13.2173 12.0318 13.2057 12.0653 13.1911L12.6435 14.5258ZM11.6223 14.5767C11.9577 14.6838 12.3205 14.6657 12.6435 14.5258L12.0653 13.1911L11.6223 14.5767ZM10.8834 14.1039C10.9983 14.1977 11.1118 14.2916 11.2143 14.3643C11.322 14.4407 11.4558 14.5236 11.6223 14.5767L12.0653 13.1911C12.0995 13.2021 12.106 13.213 12.058 13.1795C11.9715 13.1148 11.8868 13.0476 11.8042 12.978L10.8834 14.1039ZM10.3467 13.6646C10.2717 13.6537 10.2623 13.6246 10.3808 13.7068C10.4936 13.7854 10.6412 13.9054 10.8827 14.1032L11.8042 12.978C11.5816 12.7955 11.3816 12.6311 11.2107 12.5126C11.0463 12.3977 10.8194 12.2602 10.5401 12.2224L10.3467 13.6646ZM10.3467 13.6646L10.5401 12.2224C10.2856 12.1882 10.0266 12.222 9.78934 12.3204C9.55212 12.4187 9.34517 12.5781 9.18951 12.7824L10.3467 13.6646ZM10.2768 14.3548C10.3081 14.0443 10.3277 13.8537 10.3517 13.7192C10.3772 13.5773 10.3917 13.6035 10.3459 13.6639L9.18951 12.7817C9.0186 13.0057 8.95605 13.2639 8.92041 13.461C8.88405 13.6661 8.85932 13.9235 8.83022 14.2101L10.2768 14.3548ZM10.0885 15.2123C10.1685 15.0567 10.2048 14.904 10.2267 14.773C10.2485 14.6494 10.2616 14.5032 10.2768 14.3548L8.83022 14.2101C8.82052 14.3181 8.80791 14.425 8.79241 14.5323C8.78295 14.5905 8.77931 14.5781 8.79604 14.5454L10.0885 15.2123ZM9.33134 15.8982C9.65833 15.7686 9.92731 15.525 10.0885 15.2123L8.79677 14.5461L9.33134 15.8982ZM8.45857 16C8.60767 16 8.75531 16 8.88041 15.992C9.01278 15.9833 9.16842 15.9636 9.33134 15.8982L8.79677 14.5461C8.83095 14.533 8.84259 14.5374 8.7844 14.5418C8.67634 14.5463 8.56817 14.5478 8.46003 14.5461L8.45857 16ZM7.53999 16H8.45857L8.4593 14.5454H7.53999V16ZM6.66867 15.8982C6.83086 15.9622 6.98651 15.9833 7.1196 15.992C7.24397 16 7.39162 16 7.53999 16V14.5454C7.37198 14.5454 7.28107 14.5454 7.21561 14.541C7.15742 14.5367 7.16906 14.5323 7.20324 14.5454L6.66867 15.8982ZM5.9101 15.2123C6.07161 15.5252 6.34114 15.7689 6.66867 15.8982L7.20324 14.5454L5.9101 15.2123ZM5.72245 14.3548C5.737 14.5032 5.75154 14.6494 5.77191 14.773C5.79373 14.904 5.83009 15.0567 5.9101 15.2123L7.2047 14.5461C7.22143 14.5781 7.21779 14.5905 7.20833 14.533C7.19285 14.426 7.18048 14.3186 7.17124 14.2108L5.72245 14.3548ZM5.65336 13.6639C5.60754 13.6043 5.62208 13.5766 5.64754 13.7192C5.67154 13.8537 5.69118 14.0443 5.72245 14.3548L7.16979 14.2101C7.1407 13.9235 7.11597 13.6661 7.07887 13.461C7.04324 13.2646 6.98069 13.0064 6.80977 12.7824L5.65336 13.6639ZM5.65336 13.6639L6.80977 12.7824C6.65412 12.5781 6.44717 12.4187 6.20995 12.3204C5.97272 12.222 5.71369 12.1882 5.45917 12.2224L5.65336 13.6639ZM5.11588 14.1039C5.35807 13.9061 5.50571 13.7854 5.61845 13.7075C5.737 13.6253 5.72827 13.6544 5.65336 13.6639L5.45917 12.2224C5.17988 12.2602 4.95296 12.3984 4.78859 12.5133C4.61767 12.6311 4.41767 12.7955 4.19511 12.978L5.11588 14.1039ZM4.37694 14.5767C4.52325 14.5277 4.66094 14.4561 4.78496 14.3643C4.88678 14.2916 5.00096 14.1977 5.11588 14.1039L4.19584 12.9788C4.11293 13.0484 4.02877 13.1155 3.94201 13.1802C3.89473 13.2144 3.90128 13.2035 3.93546 13.1919L4.37694 14.5767ZM3.3558 14.5258C3.6788 14.6657 4.04161 14.6838 4.37694 14.5767L3.93401 13.1911L3.3558 14.5258ZM2.66704 13.9817C2.7725 14.0872 2.87651 14.1912 2.97106 14.2741C3.0707 14.3614 3.19507 14.4567 3.35653 14.5265L3.93401 13.1911C3.96746 13.2057 3.97255 13.2173 3.92892 13.1788C3.84918 13.1059 3.77157 13.0307 3.69618 12.9533L2.66704 13.9817ZM2.01756 13.3315L2.66777 13.9817L3.69618 12.9533L3.04597 12.3031L2.01756 13.3315ZM1.47353 12.6435C1.54263 12.8035 1.63791 12.9286 1.72518 13.029C1.8081 13.1228 1.9121 13.2268 2.01756 13.3315L3.04597 12.3031C2.96859 12.2277 2.89341 12.1501 2.8205 12.0704C2.78196 12.0267 2.79359 12.0318 2.80814 12.0653L1.47353 12.6435ZM1.42262 11.6223C1.31547 11.9577 1.33356 12.3205 1.47353 12.6435L2.80814 12.0653L1.42262 11.6223ZM1.89537 10.8834C1.80486 10.9907 1.71802 11.1011 1.635 11.2143C1.54322 11.3383 1.47155 11.476 1.42262 11.6223L2.80814 12.0653C2.7965 12.0995 2.78632 12.106 2.81978 12.058C2.8576 12.0049 2.91433 11.9344 3.02124 11.8042L1.89537 10.8834ZM2.33466 10.3459C2.34485 10.271 2.37394 10.2623 2.29175 10.3808C2.21393 10.4936 2.0932 10.6419 1.89537 10.8834L3.02124 11.8042C3.20307 11.5816 3.36816 11.3816 3.48672 11.2107C3.6009 11.0463 3.73909 10.8194 3.77691 10.5401L2.33466 10.3459ZM2.33466 10.3459L3.77691 10.5401C3.81109 10.2856 3.77729 10.0266 3.67892 9.78934C3.58056 9.55212 3.42115 9.34517 3.21689 9.18951L2.33466 10.3459ZM1.64372 10.2768C1.95501 10.3081 2.14556 10.3277 2.28012 10.3517C2.42194 10.3772 2.39503 10.3917 2.33466 10.3459L3.21689 9.18951C2.99288 9.0186 2.73541 8.95605 2.53758 8.92041C2.33321 8.88405 2.07574 8.85859 1.78846 8.8295L1.64372 10.2768ZM0.786959 10.0892C0.942602 10.1692 1.09534 10.2056 1.22625 10.2274C1.34989 10.2477 1.49608 10.263 1.64445 10.2776L1.78846 8.8295C1.68073 8.8205 1.57401 8.80837 1.46699 8.79313C1.4088 8.78295 1.42117 8.77931 1.4539 8.79604L0.786959 10.0892ZM0.101838 9.33134C0.231102 9.65888 0.47479 9.92841 0.787686 10.0899L1.45463 8.79677L0.101838 9.33134ZM1.48415e-05 8.46003C1.48415e-05 8.6084 1.48686e-05 8.75604 0.00801522 8.88114C0.0167429 9.01351 0.0371074 9.16915 0.102565 9.33207L1.45463 8.79604C1.46772 8.83022 1.46335 8.84186 1.45972 8.78368C1.45492 8.67586 1.45322 8.56794 1.45463 8.46003H1.48415e-05ZM1.48415e-05 7.54071V8.46003H1.45463V7.54071H1.48415e-05ZM0.101838 6.66867C0.04705 6.81312 0.015387 6.9653 0.00801522 7.1196C-0.000712437 7.2447 1.48415e-05 7.39234 1.48415e-05 7.54144H1.45463C1.45463 7.37271 1.45462 7.28179 1.45972 7.21634C1.46335 7.15815 1.46772 7.16979 1.45463 7.20397L0.101838 6.66867ZM0.787686 5.91155C0.475052 6.07271 0.231398 6.34168 0.101838 6.66867L1.45463 7.20397L0.787686 5.91155ZM1.64518 5.72245C1.49681 5.73772 1.35062 5.75154 1.22698 5.77336C1.09606 5.79518 0.943329 5.83155 0.787686 5.91155L1.45463 7.20397C1.4219 7.2207 1.41026 7.21706 1.46772 7.20761C1.57473 7.19212 1.68218 7.17975 1.78991 7.17052L1.64518 5.72245ZM2.33612 5.65408C2.39649 5.60826 2.4234 5.62281 2.28084 5.64827C2.14629 5.67227 1.95574 5.6919 1.64518 5.72318L1.78991 7.17052C2.07574 7.14142 2.33394 7.11669 2.53904 7.0796C2.73614 7.04396 2.99433 6.98142 3.21834 6.8105L2.33612 5.65408ZM2.33612 5.65408L3.21834 6.8105C3.42247 6.65476 3.58174 6.44778 3.67997 6.21056C3.77821 5.97334 3.8119 5.71435 3.77764 5.45989L2.33612 5.65408ZM1.8961 5.11661C2.09393 5.35807 2.21466 5.50644 2.29321 5.61917C2.37539 5.73772 2.3463 5.729 2.33612 5.65408L3.77764 5.45989C3.73982 5.18061 3.60236 4.95442 3.48744 4.78932C3.36889 4.6184 3.20379 4.41839 3.02197 4.19584L1.8961 5.11661ZM1.42335 4.37694C1.47644 4.54422 1.55863 4.67731 1.63572 4.78568C1.70845 4.8875 1.80228 5.00169 1.8961 5.11661L3.02197 4.19584C2.95238 4.11294 2.8852 4.02878 2.8205 3.94201C2.78632 3.89473 2.79796 3.90055 2.80887 3.93474L1.42335 4.37694ZM1.47426 3.35653C1.33447 3.67932 1.31638 4.04183 1.42335 4.37694L2.80887 3.93474L1.47426 3.35653ZM2.01829 2.66777C1.91283 2.77323 1.80882 2.87651 1.72591 2.97106C1.62229 3.08552 1.53737 3.21561 1.47426 3.35653L2.80887 3.93474C2.79432 3.96819 2.78268 3.97328 2.82123 3.92892C2.86487 3.87946 2.92815 3.81546 3.0467 3.69618L2.01829 2.66777ZM2.6685 2.01829L2.01829 2.66777L3.0467 3.69618L3.69763 3.0467L2.6685 2.01829ZM3.35653 1.47353C3.21556 1.53686 3.08547 1.62204 2.97106 1.72591C2.86722 1.82024 2.76632 1.91774 2.6685 2.01829L3.69763 3.0467C3.81618 2.92742 3.88019 2.86414 3.92964 2.82123C3.97328 2.78196 3.96819 2.79359 3.93474 2.80814L3.35653 1.47353ZM4.37766 1.42262C4.04234 1.31547 3.67953 1.33356 3.35653 1.47353L3.93474 2.80814L4.37766 1.42262ZM5.11588 1.89537C5.00096 1.80155 4.88823 1.70845 4.78568 1.63572C4.66172 1.54369 4.52402 1.47178 4.37766 1.42262L3.93474 2.80814C3.90055 2.79723 3.89401 2.78632 3.94201 2.81978C3.9951 2.85832 4.06565 2.91505 4.19584 3.02197L5.11588 1.89537ZM5.65408 2.33539C5.729 2.34557 5.73772 2.37467 5.61917 2.29248C5.44748 2.16604 5.2801 2.03384 5.11733 1.8961L4.19584 3.02197C4.41839 3.20379 4.61767 3.36816 4.78859 3.48744C4.95296 3.60163 5.17988 3.73909 5.45917 3.77691L5.65408 2.33539ZM5.65408 2.33539L5.45989 3.77691C5.71442 3.81109 5.97345 3.77729 6.21067 3.67892C6.44789 3.58056 6.65485 3.42115 6.8105 3.21689L5.65408 2.33539ZM5.72318 1.64445C5.6919 1.95574 5.67227 2.14629 5.64827 2.28084C5.62281 2.42267 5.60826 2.39576 5.65408 2.33539L6.8105 3.21689C6.98142 2.99288 7.04396 2.73541 7.0796 2.53831C7.11597 2.33394 7.14215 2.07574 7.17052 1.78919L5.72318 1.64445ZM5.91082 0.787686C5.84195 0.925942 5.79532 1.07419 5.77264 1.22698C5.75227 1.35062 5.73772 1.49681 5.72318 1.64518L7.17052 1.78919C7.18 1.68151 7.19213 1.5748 7.20688 1.46772C7.21706 1.40953 7.2207 1.42262 7.20397 1.45463L5.91082 0.787686ZM6.6694 0.101838C6.34186 0.231102 6.07233 0.47479 5.91082 0.787686L7.20397 1.45463L6.6694 0.101838ZM7.54071 1.48415e-05C7.39234 1.48415e-05 7.2447 1.48686e-05 7.1196 0.00801522C6.9653 0.015387 6.81312 0.04705 6.66867 0.101838L7.2047 1.45463C7.17052 1.46772 7.15888 1.46335 7.21706 1.45972C7.28252 1.45535 7.37343 1.45463 7.54144 1.45463L7.54071 1.48415e-05ZM8.46003 1.48415e-05H7.54071V1.45463H8.46003V1.48415e-05ZM9.33134 0.101838C9.1869 0.04705 9.03472 0.015387 8.88041 0.00801522C8.75677 -0.000712437 8.60912 1.48415e-05 8.46075 1.48415e-05V1.45463C8.62876 1.45463 8.71967 1.45462 8.78513 1.45972C8.84332 1.46335 8.83095 1.46772 8.79677 1.45463L9.33134 0.101838ZM10.0899 0.787686C9.92841 0.47479 9.65888 0.231102 9.33134 0.101838L8.79677 1.45463L10.0899 0.787686ZM10.1823 8.00037C10.1823 8.57905 9.95241 9.13403 9.54322 9.54322C9.13403 9.95241 8.57905 10.1823 8.00037 10.1823V11.6369C8.96484 11.6369 9.8898 11.2538 10.5718 10.5718C11.2538 9.8898 11.6369 8.96484 11.6369 8.00037H10.1823ZM8.00037 5.81846C8.57905 5.81846 9.13403 6.04833 9.54322 6.45752C9.95241 6.86671 10.1823 7.42169 10.1823 8.00037H11.6369C11.6369 7.0359 11.2538 6.11094 10.5718 5.42896C9.8898 4.74698 8.96484 4.36385 8.00037 4.36385V5.81846ZM5.81846 8.00037C5.81846 7.42169 6.04833 6.86671 6.45752 6.45752C6.86671 6.04833 7.42169 5.81846 8.00037 5.81846V4.36385C7.0359 4.36385 6.11094 4.74698 5.42896 5.42896C4.74698 6.11094 4.36385 7.0359 4.36385 8.00037H5.81846ZM8.00037 10.1823C7.42169 10.1823 6.86671 9.95241 6.45752 9.54322C6.04833 9.13403 5.81846 8.57905 5.81846 8.00037H4.36385C4.36385 8.96484 4.74698 9.8898 5.42896 10.5718C6.11094 11.2538 7.0359 11.6369 8.00037 11.6369V10.1823Z" fill="black"/>
</svg>
